<?xml version="1.0" standalone="no"?>
<!DOCTYPE svg PUBLIC "-//W3C//DTD SVG 20010904//EN"
 "http://www.w3.org/TR/2001/REC-SVG-20010904/DTD/svg10.dtd">
<svg version="1.0" xmlns="http://www.w3.org/2000/svg"
 width="915.000000pt" height="1003.000000pt" viewBox="0 0 915.000000 1003.000000"
 preserveAspectRatio="xMidYMid meet">

<g transform="translate(0.000000,1003.000000) scale(0.100000,-0.100000)"
fill="#000000" stroke="none">
<path d="M7975 9916 c-352 -80 -597 -250 -720 -500 -58 -115 -65 -179 -72
-641 l-6 -410 -35 -70 c-58 -117 -174 -305 -387 -625 -285 -430 -560 -859
-596 -931 -23 -44 -28 -63 -20 -69 7 -4 58 -17 114 -30 56 -12 138 -35 183
-51 85 -30 329 -145 427 -201 70 -40 76 -37 133 58 23 38 101 170 174 294 285
482 328 552 475 775 83 127 175 258 204 293 97 117 206 182 469 281 189 72
268 108 347 159 205 131 304 267 366 502 20 73 23 109 22 255 -1 277 -45 415
-132 415 -40 0 -106 -88 -300 -403 -40 -64 -84 -131 -99 -148 -23 -28 -29 -31
-69 -25 -50 7 -153 57 -278 136 -49 31 -118 73 -151 93 -34 20 -80 57 -103 82
-59 64 -57 95 18 238 32 61 104 188 160 281 55 93 101 177 101 186 0 9 -11 27
-25 40 -31 30 -112 36 -200 16z m-243 -1053 c10 -9 18 -24 18 -34 0 -31 -243
-340 -278 -354 -23 -9 -72 43 -72 76 0 51 195 320 244 339 24 8 62 -3 88 -27z
m203 -130 c50 -51 55 -78 19 -105 -16 -11 -84 -76 -151 -144 -114 -116 -124
-124 -160 -124 -46 0 -63 14 -63 51 0 39 97 173 219 302 65 68 86 72 136 20z
m215 -145 c11 -12 20 -27 20 -33 0 -27 -149 -262 -208 -327 -51 -57 -110 -50
-132 17 -15 46 9 100 94 208 119 152 177 187 226 135z m-683 -590 c87 -53 87
-53 -60 -288 -50 -80 -143 -230 -207 -335 -231 -379 -366 -589 -401 -627 -34
-36 -40 -38 -93 -38 -53 0 -61 3 -93 35 -30 30 -34 39 -28 67 10 46 35 93 87
163 77 104 201 294 298 455 132 220 331 518 374 563 20 20 44 37 53 37 10 0
41 -15 70 -32z"/>
<path d="M4102 9055 c-171 -16 -246 -28 -417 -67 -297 -67 -652 -172 -828
-244 -225 -92 -626 -300 -787 -407 -265 -178 -627 -497 -834 -736 -142 -164
-478 -612 -480 -640 -1 -14 24 -16 219 -17 206 0 226 -2 320 -27 55 -15 109
-27 120 -27 26 0 77 53 201 210 126 160 209 251 342 373 586 539 1430 905
2286 993 233 25 671 10 951 -32 360 -53 730 -179 1265 -429 89 -41 167 -75
174 -75 22 0 169 238 262 422 l44 87 -33 25 c-42 33 -251 133 -482 231 -200
86 -431 165 -635 218 -480 125 -734 157 -1230 156 -173 -1 -379 -7 -458 -14z"/>
<path d="M7814 7363 c-37 -65 -108 -183 -157 -263 -50 -80 -95 -157 -100 -171
-9 -23 0 -44 78 -180 49 -85 133 -228 188 -319 147 -244 191 -338 322 -691
132 -354 213 -778 222 -1166 11 -442 -38 -743 -197 -1223 -118 -358 -224 -582
-392 -833 -546 -818 -1216 -1326 -2102 -1592 -408 -123 -678 -165 -1056 -165
-771 0 -1534 227 -2177 647 -296 194 -588 453 -798 708 -185 226 -419 591
-555 870 -103 209 -154 343 -178 463 -11 51 -23 88 -32 93 -8 4 -49 23 -91 43
-88 42 -184 127 -219 196 -31 61 -43 221 -38 540 2 190 7 261 17 280 7 14 41
59 75 100 l61 74 0 171 0 170 -94 50 c-51 27 -113 67 -136 87 -96 84 -169 240
-211 447 -13 69 -27 127 -29 130 -31 30 -59 -194 -101 -804 -24 -352 -16 -789
19 -1015 79 -514 292 -1117 557 -1580 328 -571 732 -1034 1210 -1387 707 -520
1489 -808 2430 -893 419 -37 1021 42 1574 207 217 64 347 118 661 273 403 199
640 360 968 658 589 536 1063 1292 1281 2045 192 661 221 1283 95 1997 -65
374 -243 835 -519 1350 -121 227 -479 800 -500 800 -4 0 -39 -53 -76 -117z"/>
<path d="M3045 7240 c-217 -19 -386 -71 -790 -243 -273 -116 -502 -210 -675
-275 -94 -36 -96 -36 -255 -37 -113 0 -172 4 -200 14 -51 18 -185 16 -409 -5
-171 -16 -208 -25 -253 -67 -22 -20 -23 -27 -23 -181 1 -89 5 -285 10 -436 8
-237 12 -285 30 -345 31 -99 85 -198 134 -243 73 -67 250 -162 302 -162 28 0
28 -5 8 67 -21 79 -21 306 1 388 61 235 273 455 521 542 71 24 93 27 219 27
163 0 218 -10 330 -65 215 -105 376 -288 439 -498 21 -70 22 -327 2 -421 -9
-41 -11 -69 -5 -75 10 -10 2597 -22 2623 -12 12 5 11 18 -6 79 -28 103 -35
299 -14 398 53 251 250 465 511 557 77 27 88 28 260 28 172 -1 183 -2 255 -29
149 -56 334 -209 425 -350 95 -149 125 -375 78 -590 -13 -57 -13 -70 -2 -77
23 -14 220 -10 314 6 156 27 221 69 247 158 7 25 12 112 12 212 l1 170 -36 76
c-63 131 -173 233 -384 355 -198 114 -393 193 -595 242 -203 50 -304 61 -834
92 -156 9 -175 12 -232 39 -74 35 -278 151 -599 341 -388 230 -493 280 -635
306 -92 17 -631 26 -775 14z m764 -279 c117 -40 387 -180 674 -348 123 -73
145 -89 134 -99 -3 -3 -65 -1 -139 5 -255 21 -695 41 -1035 48 -286 5 -345 4
-359 -8 -15 -13 -16 -35 -10 -249 13 -434 25 -493 125 -597 68 -71 160 -114
292 -137 56 -10 73 -35 65 -97 -12 -87 -17 -92 -94 -84 -262 26 -472 166 -574
382 l-30 63 -5 356 -6 356 -24 15 c-21 14 -59 15 -294 10 -295 -6 -335 -1
-345 39 -15 60 65 109 378 233 272 108 283 110 633 122 165 6 302 13 305 16 3
3 59 3 125 0 87 -3 137 -10 184 -26z m-361 -781 c3 -43 -1 -57 -14 -67 -19
-14 -159 -18 -226 -7 -37 6 -38 7 -38 51 0 82 3 84 148 81 l127 -3 3 -55z"/>
<path d="M1573 6075 c-157 -34 -341 -175 -411 -315 -45 -91 -65 -194 -58 -299
19 -257 179 -452 423 -515 35 -9 102 -16 156 -16 227 0 403 110 501 313 38 77
66 196 66 275 0 60 -31 185 -61 244 -78 155 -238 275 -420 313 -84 18 -114 18
-196 0z m202 -296 c63 -24 115 -70 147 -132 17 -33 21 -59 21 -122 -1 -187
-97 -295 -263 -295 -80 0 -143 24 -194 75 -67 67 -81 105 -81 210 0 101 12
134 74 198 80 85 184 108 296 66z"/>
<path d="M5703 6076 c-259 -49 -451 -268 -469 -536 -18 -265 133 -499 380
-587 67 -24 190 -34 275 -22 266 36 493 292 494 559 1 47 -5 110 -12 140 -73
302 -372 502 -668 446z m226 -300 c52 -27 122 -97 142 -141 27 -58 26 -194 -1
-250 -47 -98 -140 -155 -254 -155 -93 0 -139 16 -198 68 -67 61 -90 110 -96
202 -4 62 0 85 17 126 28 65 93 129 157 154 61 25 181 23 233 -4z"/>
<path d="M1245 4649 c-365 -7 -382 -10 -428 -75 -27 -39 -30 -50 -38 -180 -12
-203 -11 -455 2 -495 15 -43 62 -95 114 -122 l40 -22 3469 -3 3469 -2 45 21
c61 30 109 81 124 131 14 48 19 632 5 680 -4 15 -16 32 -27 38 -11 6 -90 15
-177 20 -179 10 -6101 19 -6598 9z m6683 -221 c7 -7 12 -42 12 -89 0 -61 -4
-82 -19 -100 l-19 -24 -275 0 c-211 0 -278 3 -290 13 -8 7 -18 31 -22 53 -8
45 11 138 28 140 13 2 379 14 498 17 47 1 79 -2 87 -10z m-6295 -33 c25 -53
22 -118 -7 -152 l-24 -28 -253 -3 c-277 -4 -318 1 -337 43 -20 43 -15 119 9
149 l20 26 288 0 287 0 17 -35z m934 29 c46 -6 54 -10 67 -39 22 -45 21 -138
-1 -156 -12 -11 -76 -15 -289 -17 l-273 -4 -21 34 c-25 42 -26 98 0 148 l20
40 223 0 c122 0 245 -3 274 -6z m1078 -1 c42 -5 49 -10 61 -39 15 -35 8 -92
-17 -148 l-12 -26 -246 1 c-304 1 -337 5 -365 42 -27 36 -25 94 4 141 l22 36
252 0 c139 0 275 -3 301 -7z m1091 -17 c16 -23 19 -152 4 -176 -11 -18 -130
-28 -376 -29 l-172 -1 -36 40 c-30 34 -36 47 -36 86 0 53 13 82 43 94 12 5
143 9 290 7 253 -2 269 -3 283 -21z m1028 14 c21 -4 43 -15 47 -22 30 -47 16
-148 -23 -169 -14 -8 -126 -15 -303 -21 l-280 -9 -27 33 c-33 39 -38 107 -11
163 l17 35 270 0 c149 0 289 -5 310 -10z m1044 1 c29 -4 58 -13 64 -19 13 -13
16 -93 5 -134 -4 -15 -16 -32 -28 -38 -26 -14 -461 -34 -535 -25 -74 9 -94 30
-94 95 0 55 19 103 47 119 21 12 460 14 541 2z"/>
<path d="M4375 3503 c-87 -19 -223 -70 -288 -107 -220 -126 -415 -360 -506
-607 -48 -132 -55 -177 -55 -359 0 -151 3 -186 23 -260 74 -273 279 -528 524
-652 200 -100 513 -130 742 -72 142 37 315 153 470 316 82 86 103 116 145 202
91 190 126 462 85 661 -58 278 -270 591 -509 750 -154 102 -275 136 -483 134
-70 -1 -137 -3 -148 -6z m315 -422 c373 -106 567 -495 436 -873 -80 -228 -311
-410 -554 -433 -166 -17 -376 62 -507 189 -218 214 -261 532 -109 813 96 178
246 289 436 323 73 13 221 4 298 -19z"/>
</g>
</svg>
